{
	"asset":{
		"generator":"Khronos glTF Blender I/O v3.6.28",
		"version":"2.0"
	},
	"extensionsUsed":[
		"KHR_materials_clearcoat",
		"KHR_materials_transmission",
		"KHR_materials_specular",
		"KHR_materials_ior"
	],
	"scene":0,
	"scenes":[
		{
			"name":"Scene",
			"nodes":[
				0
			]
		}
	],
	"nodes":[
		{
			"mesh":0,
			"name":"Cube",
			"scale":[
				0.5812069177627563,
				0.5812069177627563,
				0.579695463180542
			],
			"translation":[
				0.03494708240032196,
				0.8114305138587952,
				-0.04498642683029175
			]
		}
	],
	"materials":[
		{
			"doubleSided":true,
			"name":"Material.001",
			"pbrMetallicRoughness":{
				"baseColorFactor":[
					0.22025740146636963,
					0.082390695810318,
					0.04924553260207176,
					1
				],
				"metallicFactor":0,
				"roughnessFactor":0.11658032238483429
			}
		},
		{
			"alphaMode":"BLEND",
			"doubleSided":true,
			"extensions":{
				"KHR_materials_clearcoat":{
					"clearcoatFactor":1,
					"clearcoatRoughnessFactor":0
				},
				"KHR_materials_transmission":{
					"transmissionFactor":0.8888468146324158
				},
				"KHR_materials_specular":{
					"specularColorFactor":[
						0.9976963091673312,
						0.9976963091673312,
						0.9976963091673312
					]
				}
			},
			"name":"glass",
			"pbrMetallicRoughness":{
				"baseColorFactor":[
					1,
					1,
					1,
					0.10000000149011612
				]
			}
		},
		{
			"doubleSided":true,
			"extensions":{
				"KHR_materials_specular":{
					"specularColorFactor":[
						1.1303881013860262,
						1.1303881013860262,
						1.1303881013860262
					]
				},
				"KHR_materials_ior":{
					"ior":1.4500000476837158
				}
			},
			"name":"Material.002",
			"pbrMetallicRoughness":{
				"baseColorFactor":[
					0.054467346519231796,
					0.06872324645519257,
					0.07657435536384583,
					1
				],
				"metallicFactor":0,
				"roughnessFactor":0
			}
		}
	],
	"meshes":[
		{
			"name":"Cube.001",
			"primitives":[
				{
					"attributes":{
						"POSITION":0,
						"NORMAL":1,
						"TEXCOORD_0":2
					},
					"indices":3,
					"material":0
				},
				{
					"attributes":{
						"POSITION":4,
						"NORMAL":5,
						"TEXCOORD_0":6
					},
					"indices":7,
					"material":1
				},
				{
					"attributes":{
						"POSITION":8,
						"NORMAL":9,
						"TEXCOORD_0":10
					},
					"indices":11,
					"material":2
				}
			]
		}
	],
	"accessors":[
		{
			"bufferView":0,
			"componentType":5126,
			"count":1489,
			"max":[
				1.045561671257019,
				1.8031672239303589,
				1.0735324621200562
			],
			"min":[
				-1.045561671257019,
				-1.3090463876724243,
				-1.0735324621200562
			],
			"type":"VEC3"
		},
		{
			"bufferView":1,
			"componentType":5126,
			"count":1489,
			"type":"VEC3"
		},
		{
			"bufferView":2,
			"componentType":5126,
			"count":1489,
			"type":"VEC2"
		},
		{
			"bufferView":3,
			"componentType":5123,
			"count":8448,
			"type":"SCALAR"
		},
		{
			"bufferView":4,
			"componentType":5126,
			"count":3273,
			"max":[
				1.1529630422592163,
				2.43751859664917,
				1.156221866607666
			],
			"min":[
				-1.1529630422592163,
				-1.4010926485061646,
				-1.155717372894287
			],
			"type":"VEC3"
		},
		{
			"bufferView":5,
			"componentType":5126,
			"count":3273,
			"type":"VEC3"
		},
		{
			"bufferView":6,
			"componentType":5126,
			"count":3273,
			"type":"VEC2"
		},
		{
			"bufferView":7,
			"componentType":5123,
			"count":12660,
			"type":"SCALAR"
		},
		{
			"bufferView":8,
			"componentType":5126,
			"count":2300,
			"max":[
				0.32256656885147095,
				3.8943116664886475,
				1.111154556274414
			],
			"min":[
				-0.4626360237598419,
				-1.2411940097808838,
				-0.13375937938690186
			],
			"type":"VEC3"
		},
		{
			"bufferView":9,
			"componentType":5126,
			"count":2300,
			"type":"VEC3"
		},
		{
			"bufferView":10,
			"componentType":5126,
			"count":2300,
			"type":"VEC2"
		},
		{
			"bufferView":11,
			"componentType":5123,
			"count":13104,
			"type":"SCALAR"
		}
	],
	"bufferViews":[
		{
			"buffer":0,
			"byteLength":17868,
			"byteOffset":0,
			"target":34962
		},
		{
			"buffer":0,
			"byteLength":17868,
			"byteOffset":17868,
			"target":34962
		},
		{
			"buffer":0,
			"byteLength":11912,
			"byteOffset":35736,
			"target":34962
		},
		{
			"buffer":0,
			"byteLength":16896,
			"byteOffset":47648,
			"target":34963
		},
		{
			"buffer":0,
			"byteLength":39276,
			"byteOffset":64544,
			"target":34962
		},
		{
			"buffer":0,
			"byteLength":39276,
			"byteOffset":103820,
			"target":34962
		},
		{
			"buffer":0,
			"byteLength":26184,
			"byteOffset":143096,
			"target":34962
		},
		{
			"buffer":0,
			"byteLength":25320,
			"byteOffset":169280,
			"target":34963
		},
		{
			"buffer":0,
			"byteLength":27600,
			"byteOffset":194600,
			"target":34962
		},
		{
			"buffer":0,
			"byteLength":27600,
			"byteOffset":222200,
			"target":34962
		},
		{
			"buffer":0,
			"byteLength":18400,
			"byteOffset":249800,
			"target":34962
		},
		{
			"buffer":0,
			"byteLength":26208,
			"byteOffset":268200,
			"target":34963
		}
	],
	"buffers":[
		{
			"byteLength":294408,
			"uri":"data:application/octet-stream;base64,"
		}
	]
}
