{
	"asset":{
		"generator":"Khronos glTF Blender I/O v3.6.28",
		"version":"2.0"
	},
	"extensionsUsed":[
		"KHR_materials_transmission",
		"KHR_materials_ior",
		"KHR_materials_specular"
	],
	"scene":0,
	"scenes":[
		{
			"name":"Scene",
			"nodes":[
				0,
				1,
				2
			]
		}
	],
	"nodes":[
		{
			"mesh":0,
			"name":"Cylinder",
			"scale":[
				0.813999593257904,
				0.9519519805908203,
				0.813999593257904
			],
			"translation":[
				0.06918361783027649,
				1.4211413860321045,
				0.033599019050598145
			]
		},
		{
			"name":"BezierCurve",
			"translation":[
				3.7019224166870117,
				0,
				-0.6250255107879639
			]
		},
		{
			"name":"BezierCircle",
			"translation":[
				7.429436206817627,
				0,
				0
			]
		}
	],
	"materials":[
		{
			"doubleSided":true,
			"extensions":{
				"KHR_materials_transmission":{
					"transmissionFactor":10
				},
				"KHR_materials_ior":{
					"ior":1.1500004529953003
				}
			},
			"name":"Material.001",
			"pbrMetallicRoughness":{
				"baseColorFactor":[
					0.5901346802711487,
					0.5496272444725037,
					1,
					1
				],
				"metallicFactor":0,
				"roughnessFactor":0.06735751032829285
			}
		},
		{
			"doubleSided":true,
			"name":"Material.005",
			"pbrMetallicRoughness":{
				"baseColorFactor":[
					0.8000000715255737,
					0.6559184789657593,
					0.6152135729789734,
					1
				],
				"metallicFactor":0,
				"roughnessFactor":0
			}
		},
		{
			"doubleSided":true,
			"extensions":{
				"KHR_materials_specular":{
					"specularColorFactor":[
						0,
						0,
						0
					]
				},
				"KHR_materials_ior":{
					"ior":1.4500000476837158
				}
			},
			"name":"Material.007",
			"pbrMetallicRoughness":{
				"baseColorFactor":[
					0.8000000715255737,
					0.8000000715255737,
					0.8000000715255737,
					1
				],
				"metallicFactor":0,
				"roughnessFactor":0.2915462255477905
			}
		},
		{
			"doubleSided":true,
			"extensions":{
				"KHR_materials_specular":{
					"specularColorFactor":[
						0.3440311566823582,
						0.3440311566823582,
						0.3440311566823582
					]
				},
				"KHR_materials_ior":{
					"ior":1.4500000476837158
				}
			},
			"name":"Material",
			"pbrMetallicRoughness":{
				"baseColorFactor":[
					0.4047679305076599,
					0.48371946811676025,
					1,
					1
				],
				"metallicFactor":0,
				"roughnessFactor":0.08549222350120544
			}
		}
	],
	"meshes":[
		{
			"name":"Cylinder",
			"primitives":[
				{
					"attributes":{
						"POSITION":0,
						"NORMAL":1,
						"TEXCOORD_0":2
					},
					"indices":3,
					"material":0
				},
				{
					"attributes":{
						"POSITION":4,
						"NORMAL":5,
						"TEXCOORD_0":6
					},
					"indices":7,
					"material":1
				},
				{
					"attributes":{
						"POSITION":8,
						"NORMAL":9,
						"TEXCOORD_0":10
					},
					"indices":11,
					"material":2
				},
				{
					"attributes":{
						"POSITION":12,
						"NORMAL":13,
						"TEXCOORD_0":14
					},
					"indices":15,
					"material":3
				}
			]
		}
	],
	"accessors":[
		{
			"bufferView":0,
			"componentType":5126,
			"count":27807,
			"max":[
				1.3427419662475586,
				0.5136681199073792,
				1.3265924453735352
			],
			"min":[
				-1.3427419662475586,
				-0.23550450801849365,
				-1.3265924453735352
			],
			"type":"VEC3"
		},
		{
			"bufferView":1,
			"componentType":5126,
			"count":27807,
			"type":"VEC3"
		},
		{
			"bufferView":2,
			"componentType":5126,
			"count":27807,
			"type":"VEC2"
		},
		{
			"bufferView":3,
			"componentType":5123,
			"count":164160,
			"type":"SCALAR"
		},
		{
			"bufferView":4,
			"componentType":5126,
			"count":22997,
			"max":[
				1.641433596611023,
				-0.16207675635814667,
				1.6275075674057007
			],
			"min":[
				-1.641433596611023,
				-0.988007128238678,
				-1.6275075674057007
			],
			"type":"VEC3"
		},
		{
			"bufferView":5,
			"componentType":5126,
			"count":22997,
			"type":"VEC3"
		},
		{
			"bufferView":6,
			"componentType":5126,
			"count":22997,
			"type":"VEC2"
		},
		{
			"bufferView":7,
			"componentType":5123,
			"count":135360,
			"type":"SCALAR"
		},
		{
			"bufferView":8,
			"componentType":5126,
			"count":4929,
			"max":[
				3.0882585048675537,
				-0.7025477886199951,
				3.0882585048675537
			],
			"min":[
				-3.0882585048675537,
				-1.009475827217102,
				-3.0882585048675537
			],
			"type":"VEC3"
		},
		{
			"bufferView":9,
			"componentType":5126,
			"count":4929,
			"type":"VEC3"
		},
		{
			"bufferView":10,
			"componentType":5126,
			"count":4929,
			"type":"VEC2"
		},
		{
			"bufferView":11,
			"componentType":5123,
			"count":29184,
			"type":"SCALAR"
		},
		{
			"bufferView":12,
			"componentType":5126,
			"count":9537,
			"max":[
				3.1492433547973633,
				-0.7030261158943176,
				3.1492433547973633
			],
			"min":[
				-3.1492433547973633,
				-1.2304880619049072,
				-3.1492433547973633
			],
			"type":"VEC3"
		},
		{
			"bufferView":13,
			"componentType":5126,
			"count":9537,
			"type":"VEC3"
		},
		{
			"bufferView":14,
			"componentType":5126,
			"count":9537,
			"type":"VEC2"
		},
		{
			"bufferView":15,
			"componentType":5123,
			"count":56832,
			"type":"SCALAR"
		}
	],
	"bufferViews":[
		{
			"buffer":0,
			"byteLength":333684,
			"byteOffset":0,
			"target":34962
		},
		{
			"buffer":0,
			"byteLength":333684,
			"byteOffset":333684,
			"target":34962
		},
		{
			"buffer":0,
			"byteLength":222456,
			"byteOffset":667368,
			"target":34962
		},
		{
			"buffer":0,
			"byteLength":328320,
			"byteOffset":889824,
			"target":34963
		},
		{
			"buffer":0,
			"byteLength":275964,
			"byteOffset":1218144,
			"target":34962
		},
		{
			"buffer":0,
			"byteLength":275964,
			"byteOffset":1494108,
			"target":34962
		},
		{
			"buffer":0,
			"byteLength":183976,
			"byteOffset":1770072,
			"target":34962
		},
		{
			"buffer":0,
			"byteLength":270720,
			"byteOffset":1954048,
			"target":34963
		},
		{
			"buffer":0,
			"byteLength":59148,
			"byteOffset":2224768,
			"target":34962
		},
		{
			"buffer":0,
			"byteLength":59148,
			"byteOffset":2283916,
			"target":34962
		},
		{
			"buffer":0,
			"byteLength":39432,
			"byteOffset":2343064,
			"target":34962
		},
		{
			"buffer":0,
			"byteLength":58368,
			"byteOffset":2382496,
			"target":34963
		},
		{
			"buffer":0,
			"byteLength":114444,
			"byteOffset":2440864,
			"target":34962
		},
		{
			"buffer":0,
			"byteLength":114444,
			"byteOffset":2555308,
			"target":34962
		},
		{
			"buffer":0,
			"byteLength":76296,
			"byteOffset":2669752,
			"target":34962
		},
		{
			"buffer":0,
			"byteLength":113664,
			"byteOffset":2746048,
			"target":34963
		}
	],
	"buffers":[
		{
			"byteLength":2859712,
			"uri":"data:application/octet-stream;base64,"
		}
	]
}
